<?xml version="1.0" encoding="utf-8"?>
<!-- Generator: Adobe Illustrator 21.0.0, SVG Export Plug-In . SVG Version: 6.00 Build 0)  -->
<svg version="1.1" xmlns="http://www.w3.org/2000/svg" xmlns:xlink="http://www.w3.org/1999/xlink" x="0px" y="0px"
	 viewBox="0 0 1000 1000" style="enable-background:new 0 0 1000 1000;" xml:space="preserve">
<style type="text/css">
	.st0{fill:#231F20;}
	.st1{fill:#6B2C90;}
	.st2{fill:#FFFFFF;}
</style>
<g id="TEMPLATE__x28_delete_x29_">
</g>
<g id="Guides">
</g>
<g id="Your_design">
	<g>
		
			<rect x="285.1" y="457.3" transform="matrix(0.7064 -0.7078 0.7078 0.7064 -254.6925 343.9647)" class="st2" width="4.4" height="43.3"/>
		
			<rect x="275.2" y="476.8" transform="matrix(0.7078 -0.7064 0.7064 0.7078 -251.6201 349.6139)" class="st2" width="43.3" height="4.4"/>
		<rect x="331.2" y="460" class="st2" width="4.4" height="91.6"/>
		<rect x="248.5" y="460" class="st2" width="4.4" height="91.6"/>
	</g>
	<path class="st2" d="M747.1,552l-10.4-27.9h-43.1L683.2,552h-4.4l34.4-92h3.9l34.4,92H747.1z M735.2,520.1l-20-53.7l-20,53.7H735.2
		z"/>
	<path class="st2" d="M408,552c-14.5,0-26.2-9.2-30.5-24c-0.7-2.5-1.3-4.7-1.5-7c-1.1-13-1.8-27.7,2.1-38.8
		c4.2-12.2,12.5-19.7,23.9-21.5c2.3-0.4,4.6-0.6,6.7-0.6c8.6,0,16.2,3,21.8,8.8c7.2,7.4,11,18.9,10.7,32.4c0,1.8,0,3.7,0,5.5
		c0,4.3,0,8.8-0.5,13.1c-1.7,14.5-7.8,24-18.7,29C417.5,551,412.7,552,408,552z M408.3,464.3c-19.6,0-28.6,16.7-28.8,33.3l-0.1,3.8
		c-0.2,8.3-0.4,16.9,2,25.2c3.6,12.9,14.2,21.3,26.9,21.3c0,0,0,0,0,0c2.5,0,5-0.3,7.5-1c9.5-2.5,15.8-9,19.3-19.6
		c3.4-10.5,2.7-27.9,1.3-37c-1.7-11.4-9.5-25-26.1-25.9C409.6,464.3,409,464.3,408.3,464.3z"/>
	<path class="st2" d="M517,552c-1.3,0-2.6-0.1-3.9-0.2c-14.4-1.1-25-11.1-28.3-26.6c-2.2-10.4-1.6-28.5-0.6-35.7
		c2.8-20.4,17-29.7,29.8-29.9l1.4,0c6,0,13,0.5,19.3,4.4c8.1,5,12.4,12.8,13.4,24l0,0.3l-0.3,0c-1.7,0.1-2.3,0.1-3.3,0.1h-0.3
		l-0.1-0.3c-0.1-0.7-0.2-1-0.4-2.1c-1.6-12.7-10.7-21.2-23.8-22.3c-1.2-0.1-2.3-0.1-3.4-0.1c-11.4,0-19.7,5.2-24.8,15.5
		c-1.6,3.1-3.5,8-3.9,13.3c-0.6,8.7-0.6,17.5-0.1,26.1c1.3,19.3,15.1,29.4,28,29.4l0,0c1.4,0,2.7-0.1,4.1-0.3
		c12.8-2.1,21.3-6.5,23.8-22.2c0.2-1.2,0.5-2.4,0.5-2.4l0.1-0.2l3.8-0.1l0,0.4C546.8,541.2,535.1,552,517,552z"/>
	<polygon class="st2" points="644.4,551.9 644.4,506.9 588.5,506.9 588.5,551.9 584.7,551.9 584.7,459.7 588.5,459.7 588.5,503.1 
		644.4,503.1 644.4,459.7 648.3,459.7 648.3,551.9 	"/>
</g>
<g id="Layer_4">
</g>
<g id="Layer_5">
</g>
</svg>
